<?xml version="1.0" encoding="UTF-8" standalone="no"?>
<svg
   version="1.1"
   viewBox="0 0 238.50006 239.25006"
   width="318"
   height="319"
   id="svg1656"
   sodipodi:docname="111.svg"
   inkscape:version="1.2.2 (732a01da63, 2022-12-09)"
   xmlns:inkscape="http://www.inkscape.org/namespaces/inkscape"
   xmlns:sodipodi="http://sodipodi.sourceforge.net/DTD/sodipodi-0.dtd"
   xmlns="http://www.w3.org/2000/svg"
   xmlns:svg="http://www.w3.org/2000/svg">
  <defs
     id="defs1660" />
  <sodipodi:namedview
     id="namedview1658"
     pagecolor="#ffffff"
     bordercolor="#000000"
     borderopacity="0.25"
     inkscape:showpageshadow="2"
     inkscape:pageopacity="0.0"
     inkscape:pagecheckerboard="0"
     inkscape:deskcolor="#d1d1d1"
     showgrid="false"
     inkscape:zoom="1.4790474"
     inkscape:cx="197.42437"
     inkscape:cy="120.34773"
     inkscape:window-width="1366"
     inkscape:window-height="705"
     inkscape:window-x="-8"
     inkscape:window-y="-8"
     inkscape:window-maximized="1"
     inkscape:current-layer="svg1656" />
  <path
     d="m 78.029277,61.23913 h 84.074753 v 132.61294 l -0.28035,0.28037 h -27.18406 l -0.28035,-0.28037 -0.28035,-92.80102 -1.12098,-5.326949 -1.96172,-4.485848 -1.96171,-3.364389 -2.52221,-3.084023 -2.24196,-2.24292 -3.92353,-3.084024 -1.40123,0.56073 -3.64318,3.084024 -2.24196,2.24292 -3.0827,4.205484 -2.5222,5.326951 -1.12101,4.205484 -0.28025,1.68219 -0.28024,93.08139 -0.28025,0.28037 H 78.30953 l -0.280245,-0.28037 z"
     fill="#373186"
     id="path1438"
     style="stroke-width:1" />
  <path
     d="m 100.72945,1.5212499 h 38.6744 l 11.20997,11.2146251 1.40122,1.121462 1.40123,1.401828 1.40122,1.682195 2.24196,1.962559 3.0827,3.084022 v 0.280366 h -7.56672 l 0.28035,13.177184 22.70017,22.709616 v 0.280365 H 64.577312 l 1.681501,-1.962559 10.088965,-10.093162 2.242002,-1.96256 8.687719,-8.691334 0.280245,-13.45755 h -7.286477 l 1.681493,-1.96256 z m 19.33721,0.280365 -19.8977,19.9059601 v 0.280366 h 40.07564 l -0.28035,-0.560731 h -0.5607 v -0.560732 l -1.40123,-1.401828 -1.96171,-1.682194 -1.40123,-1.682194 h -0.5607 v -0.560731 h -0.5607 l -0.5607,-1.121462 -1.12098,-1.121463 h -0.5607 L 130.71613,12.175144 120.3469,1.8016149 Z m -1.96172,23.2703471 -3.36304,0.841098 -3.64319,1.962559 -3.36294,3.364388 -1.96174,3.925119 -0.84074,3.644753 v 2.803656 l 0.84074,3.925119 1.96174,3.644753 2.52221,2.803656 3.08269,1.96256 2.80245,1.121463 1.12098,0.280365 h 5.88525 l 3.36294,-1.121463 2.80245,-1.682193 2.52221,-2.242925 1.96171,-2.803657 1.40122,-3.925118 0.28035,-1.96256 v -2.803656 l -1.12098,-4.48585 -1.96171,-3.364388 -1.40122,-1.682193 -3.0828,-2.242926 -3.0827,-1.401828 -2.5222,-0.560732 z"
     fill="#373186"
     id="path1440"
     style="stroke-width:1" />
  <path
     d="m 14.973211,195.53427 h 2.522247 l 2.241991,1.12146 1.68149,1.96256 0.280245,1.40183 h 29.426163 v 1.68219 h -1.401246 v 7.00914 l -0.280245,0.28037 h -1.961741 v -4.48585 l -4.483992,0.28036 -0.56049,0.8411 0.280245,1.40183 1.68149,0.28036 v 1.40183 l -0.280245,0.28037 -2.522246,-0.28037 -1.401246,-1.40183 -0.280245,-1.68219 0.56049,-1.68219 1.121001,-0.8411 0.840735,-0.28036 h 5.044482 v -1.12147 h -9.528475 v 2.52329 l 1.121001,0.56073 0.56049,0.8411 -0.280245,1.96256 -0.840735,0.84109 -1.681501,0.56074 h -2.522226 l -1.961746,-0.56074 -0.840735,-0.84109 -0.280245,-1.12146 -2.522246,-0.8411 -0.56049,-0.8411 0.280245,-2.52328 0.280245,-0.28037 -1.961746,-0.28037 v 7.00914 l -0.280245,0.28037 h -1.681491 l -0.280245,-0.28037 v -4.20548 l -4.483982,0.28036 v 1.6822 l 0.840735,0.56073 1.401246,0.28036 v 1.6822 l -2.802492,-0.28037 -1.681501,-1.40183 -0.280245,-1.68219 0.280245,-0.8411 -1.681491,-0.28036 v -1.68219 h 8.407475 v -1.12147 h -9.528476 v 7.28951 h -1.961746 l -0.280245,-0.28037 v -7.00914 l -1.681496,0.28037 -0.280246,1.68219 -0.5605,0.56073 0.840746,1.12146 v 1.6822 l -1.4012454,1.40182 -1.681496,0.56074 -2.8024914,-0.28037 -1.6814949,-1.40183 -0.280245,-1.68219 h 2.2419932 l 0.5605004,1.12146 1.961743,0.28037 0.8407453,-0.8411 v -1.40183 l -3.0827406,-0.28036 0.2802449,-1.40183 2.5222424,-0.28036 v -0.8411 l -6.1654824,-0.28037 v -1.68219 l 10.3692205,-0.28037 v -2.24293 l 1.121001,-1.40182 z m 0.56049,1.68219 -0.840735,0.8411 v 1.68219 l 0.280245,0.28037 h 5.044483 l -0.56049,-1.40183 -1.681501,-1.40183 z m 15.413704,4.48585 -0.840735,1.96256 0.56049,1.40183 1.401246,-0.28037 1.121001,-0.56073 -0.56049,-1.12146 z m 1.681491,0 1.68149,1.96256 1.401246,0.28037 0.280245,-0.28037 v -1.96256 z m 2.522246,3.36439 -1.401245,0.56073 v 1.68219 l 0.560489,0.28037 h 2.522247 l 0.56049,-0.56073 -0.280245,-1.40183 -1.121001,-0.56073 z"
     fill="#3d3789"
     id="path1442"
     style="stroke-width:1" />
  <path
     d="m 45.800619,223.0101 1.961746,0.56073 1.401246,2.24293 0.280245,1.40182 -0.56049,0.28037 0.56049,0.56073 v 2.52329 h 1.401246 v -1.96255 h -1.121001 v -1.40184 h 12.891458 v -2.52328 l 0.56049,-1.12147 1.68149,-0.56073 1.681491,0.84109 1.12099,1.40184 0.56049,1.68219 h 9.24823 v -2.80366 l 1.120991,-1.12146 1.68149,0.28036 1.120991,1.96257 0.280245,1.96255 h 1.12099 l 0.280245,1.40184 h -0.840735 v 6.4484 h -1.401246 v -6.4484 h -4.483992 v 1.68219 l 0.560489,-0.28037 h 1.961747 l 0.840734,0.8411 0.280245,1.96256 -0.56049,1.40182 -0.560489,0.28037 h -1.681491 l -0.56049,-0.28037 v -1.12146 h 1.681491 l -0.280245,-1.68219 -1.401246,0.28037 -0.280245,3.36438 -1.12099,0.28036 -0.56049,-1.12146 -0.56049,0.28037 h -1.68147 l -1.121,-1.40183 0.280244,-2.52329 0.840735,-0.56073 h 1.961736 l 0.280245,1.12146 -1.681491,0.56074 0.280245,1.40182 1.401246,-0.28036 0.280245,-4.20548 H 70.74275 v 6.4484 l -1.401235,0.28036 -0.280245,-1.68219 -2.802491,1.40183 -1.121001,-0.28037 0.280245,-1.12146 1.401246,-0.84109 v -1.40183 l -1.961747,0.28037 v -1.40183 l 0.56049,-0.28037 h 2.241991 l 0.840735,1.12146 -0.280245,1.40183 1.121001,-0.28036 v -3.64475 h -5.324738 v 6.72876 l -1.401246,-0.28036 v -6.4484 h -1.12099 v 6.4484 h -1.401246 v -6.4484 h -1.401245 v 6.4484 h -1.401194 l -0.280245,-1.12146 -1.121,0.56073 -1.401246,-0.28037 -1.121001,-1.12146 -0.280245,-2.52329 h 1.401246 l -0.280245,-1.68219 -1.961746,-0.28036 v 6.4484 h -1.401246 v -3.36438 h -1.401246 v 1.96255 l -1.121,1.12146 h -1.401246 l -0.840735,-0.84109 -0.280245,-1.96256 0.56049,-1.12146 1.961746,-0.28037 v -1.96255 h -0.840735 v 1.12146 h -1.401245 v -1.12146 h -0.56049 v 6.4484 l -0.56049,0.28036 -0.840735,-0.28036 v -6.4484 H 42.71793 v 6.4484 l -1.121001,0.28036 -0.280245,-0.28036 v -3.64475 l -1.121,0.28037 0.280245,1.12146 -0.840735,1.96255 -0.56049,0.28037 h -1.961746 l -1.121001,-1.40183 -0.280245,-2.24292 h 1.401246 l 0.280245,1.96256 1.401245,-0.28037 v -1.40182 l -0.840734,-0.28037 0.280245,-1.40183 0.560489,-0.28036 v -1.12146 l -1.401245,0.56073 -0.280245,0.56073 h -1.401246 l 0.56049,-1.96257 1.681491,-0.84109 1.68149,0.56073 0.56049,0.8411 v 1.68219 l 1.121001,0.28037 v -1.68219 h -0.56049 l -0.280245,-1.40184 h 3.643237 l -0.280245,-1.96255 0.840735,-1.6822 z m 33.069401,1.40183 v 2.52329 l 0.280245,0.28036 h 1.68149 l -0.280245,-1.68219 -0.56049,-1.12146 z m -33.349649,0.28037 -0.280245,0.28036 v 2.24292 h 0.840735 l 0.280245,0.8411 0.56049,-0.56073 1.401246,-0.28037 -0.280245,-1.40182 -1.121001,-1.12146 z m 18.776695,0 -0.56049,0.84109 0.280245,1.68219 h 2.802492 l 0.280245,-0.56073 -1.120991,-1.68219 -0.280245,-0.28036 z m -8.68773,3.92512 v 2.52328 l -1.121,0.8411 0.560489,1.12146 1.401246,-0.28036 0.840735,-1.12146 v -3.08402 z m -8.127229,3.08402 -0.56049,1.12146 0.56049,0.84109 0.840735,-0.28036 v -1.68219 z"
     fill="#443f8e"
     id="path1444"
     style="stroke-width:1" />
  <path
     d="m 136.60136,222.72973 0.84105,0.8411 1.12098,2.80366 v 0.84109 l 8.40745,-0.28036 -1.40122,-1.96256 -1.12098,-0.56073 0.28035,-1.40183 1.12098,0.28036 1.68147,2.5233 0.5607,1.12146 1.68147,0.28036 v -2.24292 l 0.84105,-1.40183 1.40122,-0.56073 1.40123,0.56073 1.40122,1.6822 0.5607,1.68219 11.20997,0.28036 -0.28035,-0.84109 v -1.96256 l 0.5607,-1.12147 1.96171,-0.28036 1.12098,1.40183 0.84105,2.24292 v 0.56073 h 1.12098 v 1.40184 h -0.84105 l 0.28035,6.4484 h -1.40122 v -6.4484 h -4.76427 v 1.68219 l 0.5607,-0.28037 h 1.96171 l 1.12098,1.12146 v 2.24293 l -0.84105,1.12146 h -1.96171 l -0.5607,-1.40183 h 1.40122 l 0.28035,-0.28036 v -1.40183 h -1.40122 l -0.28035,0.28037 -0.28035,3.36438 -1.12098,0.28036 -0.5607,-1.12146 -0.5607,0.28037 h -1.68147 l -0.84105,-1.12146 v -2.52329 l 0.84105,-0.8411 h 1.96171 l 0.28035,1.40183 h -1.40164 v 1.68219 l 1.40122,-0.28036 0.28035,-4.20548 h -4.20378 v 6.4484 h -1.40122 v -6.4484 h -1.40122 v 3.36438 l -0.84105,1.40183 -0.28035,0.28036 h -2.52221 l -0.84105,-0.84109 -0.28035,-1.96256 0.5607,-0.8411 1.96172,-0.28036 h 0.84105 v -1.12146 h -4.20378 v 6.72876 l -1.40123,-0.28036 v -5.88767 l 0.28035,-0.56073 h -1.40122 v 6.4484 h -1.40123 v -6.4484 h -1.40122 l 0.28035,6.4484 h -1.68147 l 0.28035,-1.12146 -1.96172,1.40182 h -2.24217 l -0.84105,-1.12146 0.28035,-1.40182 v -0.8411 l -0.28035,-1.40183 0.5607,-0.84109 h 1.96172 v -1.12146 h -3.0828 v 6.4484 h -1.40123 v -6.4484 h -1.40122 v 6.4484 l -1.96172,0.56074 -0.84105,1.12146 -0.84104,-0.28037 0.28034,-1.12147 1.12098,-1.12146 -1.96171,-0.28036 -0.84105,-1.40183 v -2.52329 l 0.28035,-1.12146 -0.84105,-0.28036 v -1.40184 l 5.32476,-0.28036 -2.52221,-2.24292 0.5607,-1.40184 1.40123,1.12147 1.68147,2.52329 0.5607,0.28036 -1.96172,-3.92512 z m 31.66815,1.40183 -0.5607,0.56074 v 1.96255 l 0.28035,0.56073 h 1.68147 l -0.28035,-1.96255 z m -16.81495,0.56074 -0.5607,1.68219 0.28035,0.84109 h 3.0827 l -0.5607,-1.68219 -0.84105,-0.84109 z m -18.49644,3.92512 -0.28035,0.84109 v 2.52329 l 0.5607,0.8411 1.40123,-0.28037 0.28035,-0.28036 v -3.64475 z m 10.36917,0 v 2.24292 h -2.24195 v 0.8411 l 1.12098,0.28036 0.5607,-0.28036 v 1.12146 h -1.40143 l -0.28035,0.84109 0.28035,0.56073 h 1.68147 l 1.40122,-1.12146 0.28035,-1.40182 v -3.08402 z m 10.36917,2.24292 -0.28035,1.40183 1.40123,0.28036 0.5607,-0.56073 v -1.12146 z"
     fill="#403a8b"
     id="path1446"
     style="stroke-width:1" />
  <path
     d="m 55.88959,200.02012 h 42.878121 v 1.68219 h -1.401246 v 7.28951 h -1.961739 l -0.280245,-0.28037 v -4.20548 l -4.203738,0.28036 -0.560489,0.28037 v 2.24292 h 1.68149 v 1.6822 l -2.522246,-0.28037 -1.401246,-1.12146 -0.280245,-0.8411 v -1.96256 l 0.840735,-1.40182 1.401246,-0.56073 h 5.044482 v -1.12147 h -8.68773 v 7.00914 l -0.280245,0.28037 H 84.19476 l -0.280245,-0.8411 -1.681491,1.6822 -1.681491,-0.28037 -0.280245,-0.56073 3.643237,-2.52329 0.280245,-4.76622 h -2.522246 v 3.64475 l -1.401246,1.6822 -0.840735,0.28036 h -3.362981 l -1.681501,-0.84109 -0.56049,-1.12147 0.280245,-1.68219 1.12099,-0.56073 h 4.203737 v -1.40183 l -6.725984,0.28037 -0.280245,7.00914 h -1.961746 v -7.28951 h -2.242001 v 7.00914 l -0.280245,0.28037 h -1.961746 v -4.20549 l -2.241991,0.28037 0.280245,1.12146 -1.120991,1.40183 -0.840735,0.28036 h -3.082736 l -1.681491,-0.84109 -0.56049,-0.56073 v -2.24293 h 2.241992 v 1.96256 h 1.961746 l 0.840735,-0.28036 v -0.8411 l -1.681491,-0.56073 0.280245,-1.40183 h 5.604983 v -1.40183 H 55.88959 Z m 21.298937,3.92512 -1.12099,0.56073 0.280245,1.12146 0.560489,0.28037 h 1.681502 l 0.840734,-0.56074 -0.280244,-1.40182 z"
     fill="#3d378a"
     id="path1448"
     style="stroke-width:1" />
  <path
     d="m 203.30067,195.2539 1.68147,0.56073 1.68147,1.40183 1.96171,2.52329 1.96172,0.28037 v 1.68219 h -1.12098 v 7.28951 h -1.96172 l -0.28035,-0.28037 v -7.00914 h -2.24196 v 7.28951 h -1.96171 l -0.28035,-0.8411 -1.40123,0.28036 h -2.80245 l -1.68147,-1.12146 -0.5607,-0.84109 v -1.6822 l 0.84105,-1.40182 1.12098,-0.56073 h 3.0827 l 1.68147,0.56073 -0.28035,-1.6822 h -7.56672 v 7.00914 l -0.28035,0.28037 h -1.96172 v -4.48585 h -2.5222 l 0.28035,1.68219 -1.40123,1.40183 h -3.36304 l -1.40122,-1.40183 v -1.96256 l 1.40122,-1.12146 h 7.00623 v -1.40183 h -9.52843 v 7.00914 l -0.28035,0.28037 h -1.68147 l -0.28035,-0.28037 v -7.00914 h -1.68147 v -1.68219 h 1.68147 l -0.28035,-1.96256 0.84105,-1.6822 1.68147,-0.84109 h 2.24195 l 1.96172,0.84109 1.40122,1.12146 1.12098,2.24293 h 16.81495 l -2.24196,-1.96256 -2.24196,-1.12146 z m -19.61744,1.96256 -0.84105,1.12147 0.28035,1.68219 h 5.32476 l -0.84105,-1.68219 -1.68147,-1.12147 z m 16.81495,7.00914 1.68146,1.96256 0.84105,0.28037 v -1.6822 l -0.5607,-0.56073 z m -13.73222,0.28037 -0.28035,0.28036 v 1.40183 l 0.28035,0.28037 h 1.68147 l 0.28035,-0.28037 v -1.40183 l -0.28035,-0.28036 z m 12.33097,0 -0.5607,0.56073 v 1.40183 l 0.84105,0.56073 h 2.24196 l -0.5607,-1.12146 -1.40123,-1.40183 z"
     fill="#3e388a"
     id="path1450"
     style="stroke-width:1" />
  <path
     d="m 139.96435,200.02012 h 34.7509 v 1.68219 h -1.40122 v 7.28951 h -1.96172 l -0.28035,-0.28037 v -4.20548 l -2.24196,0.28036 v 1.6822 l -1.12098,1.12146 h -3.36294 l -1.12098,-0.56073 -0.5607,-1.12146 0.28035,-1.96256 1.40123,-0.8411 h 6.72598 v -1.40183 h -9.52842 v 7.28951 h -1.96172 l -0.28035,-0.28037 v -7.00914 l -1.96171,0.28037 0.28035,0.56073 v 1.68219 l -0.84105,1.40183 -1.40122,0.56073 h -0.84105 l 0.28035,1.12146 h 3.36304 v 1.6822 h -3.64329 l -1.68147,-1.40183 -0.5607,-1.12146 -1.40122,-0.28037 v -1.68219 l 3.36304,-0.28037 0.84105,-0.28036 v -1.68219 l -0.28035,-0.28037 -5.32476,-0.28037 v 7.28951 h -2.24196 v -1.96256 l -1.40122,0.56073 h -2.80245 l -1.68147,-0.8411 -0.5607,-0.84109 v -1.6822 l 0.84105,-1.12146 1.96171,-0.56073 2.80245,0.28037 0.84105,0.28036 v -1.40183 h -7.28647 z m 4.20378,3.92512 -1.40122,0.84109 0.28035,1.12147 1.40122,0.56073 1.68147,-0.28037 1.12098,-0.56073 -0.28035,-1.40183 -0.84105,-0.28036 z m 20.73844,0.56073 -0.28035,1.40183 0.5607,0.56073 h 1.40123 l 0.5607,-0.56073 -0.28035,-1.40183 z"
     fill="#403a8b"
     id="path1452"
     style="stroke-width:1" />
  <path
     d="m 103.53195,200.02012 h 31.66817 v 1.68219 h -1.40123 v 7.28951 h -2.24196 l -0.28035,-1.96256 -1.40122,0.84109 -1.96172,0.28037 -2.24196,-0.8411 -0.84105,-0.84109 -1.40122,0.56073 h -2.52221 l -1.40122,-0.8411 -0.5607,-1.12146 v -2.24292 l 0.5607,-0.8411 -1.96172,-0.28037 v 7.00914 l -0.28035,0.28037 h -1.96171 v -7.28951 h -2.24175 v 7.00914 l -0.28035,0.28037 h -1.96174 l -0.28035,-0.56074 -1.96171,1.96257 -1.12098,0.28036 -1.121,-0.84109 3.08275,-2.24293 h -3.08275 l -1.12099,-0.56073 -0.84074,-1.96256 0.28025,-2.24292 0.56049,-1.12147 h -1.40124 l -0.28024,-0.28037 z m 3.9235,1.68219 -0.84105,1.40183 v 1.96256 l 1.12098,1.12146 1.40122,0.28037 1.40123,-0.8411 0.28035,-0.28037 v -3.64475 z m 14.2927,0 -0.84105,1.40183 0.28035,1.68219 0.84105,0.8411 h 2.24196 l 0.28035,-0.8411 -0.28035,-0.84109 h 2.24196 l 0.5607,-0.56073 -0.28035,-1.40183 -0.28035,-0.28037 z m 7.00623,0 v 2.80366 l -1.96172,0.84109 0.28035,0.8411 0.5607,0.28037 h 1.96172 l 1.68147,-1.40183 0.28035,-0.56073 v -2.80366 z"
     fill="#3f398a"
     id="path1454"
     style="stroke-width:1" />
  <path
     d="m 21.699192,223.0101 1.401245,0.28036 1.121001,1.40184 0.56049,2.52328 h 7.846974 v 1.40184 h -0.840735 v 6.4484 h -1.401245 l -0.280245,-1.12146 -1.121001,0.56073 -1.401246,-0.28037 -0.840735,-0.84109 -0.56049,-1.40183 v -1.40183 h 1.401246 l -0.280245,-1.68219 -1.961746,-0.28036 v 6.4484 l -0.56049,0.28036 -0.840735,-0.28036 v -6.4484 h -1.401246 v 6.4484 h -1.401245 v -3.92512 l -2.802492,0.28037 v 1.68219 l 0.280245,0.56073 0.840735,0.28037 v 1.40182 l -1.681501,-0.28036 -0.840735,-1.12146 v -3.08402 l 1.121001,-1.12146 h 3.082736 v -1.12146 l -5.044482,0.28036 0.280245,1.68219 -0.56049,1.40183 -0.56049,0.56073 h -0.840735 l 0.280245,0.8411 1.961746,0.56073 -0.280245,1.40182 H 14.412781 L 13.29178,233.94436 12.73129,232.8229 H 12.1708 v -1.6822 l 2.241992,-0.28036 0.280244,-1.40183 -0.280244,-0.56073 -3.082743,-0.28036 v 6.72876 l -1.4012461,-0.28036 v -6.4484 H 8.8077287 v 6.4484 H 7.4064829 v -3.36438 H 6.0052372 v 1.96255 l -1.1209976,1.12146 -1.6814949,-0.28036 -0.8407475,-1.68219 0.5604994,-1.96256 1.961743,-0.28037 -0.280245,-1.96255 -0.5605004,1.12146 -1.4012468,-0.28037 0.280245,-1.6822 0.5605004,-0.56073 h 1.6814949 l 0.8407453,0.8411 0.2802449,1.6822 -0.2802449,0.84109 h 1.4012457 v -1.96255 H 6.2854863 v -1.40184 H 20.578195 v -3.36439 z m 0.56049,1.12146 -0.56049,0.8411 0.280245,2.24292 h 1.68149 l 0.280245,-0.56073 -0.840735,-1.96255 z m 6.445728,4.48586 v 3.08402 l -1.121001,0.56073 0.840735,0.84109 1.12099,-0.28036 0.840735,-1.12146 v -3.08402 z m -24.6619273,3.08402 -0.280245,0.28036 v 1.40183 h 1.1209966 v -1.68219 z"
     fill="#413b8c"
     id="path1456"
     style="stroke-width:1" />
  <path
     d="m 88.958992,223.0101 1.961746,0.84109 1.401246,2.80366 v 0.56073 h 21.018696 v 1.40184 h -0.84105 v 6.4484 h -1.40122 v -3.92512 l -1.40123,0.28037 v 1.96256 l -1.40122,0.84109 -1.68147,-0.56073 -0.56049,-0.56073 v -2.24292 l 0.56049,-0.8411 h 4.48402 v -1.40182 h -5.60481 v 6.4484 h -1.40125 v -6.4484 h -1.40124 v 6.4484 l -1.12099,0.28036 -0.28025,-0.28036 v -4.20548 h -4.483999 l 0.56049,0.8411 2.522247,0.28036 0.560492,0.56073 v 1.96256 l -0.840737,0.84109 -1.12099,0.28038 0.840734,1.68219 v 0.56073 h -1.401235 l -1.121001,-2.24292 -1.401245,-0.84111 -0.280245,-0.84109 1.401245,-0.28037 2.522247,0.56073 v -1.12146 h -2.802492 l -0.840734,-0.84109 v -1.96256 l 0.56049,-0.56073 h 5.324733 v -1.12146 h -7.006235 v 6.4484 H 92.88249 v -1.40183 l -0.56049,0.28037 h -2.242002 l -0.840735,-0.8411 -0.280245,-1.68219 0.56049,-1.40183 1.120991,-0.56073 1.961746,0.28037 0.280245,-1.12146 h -4.764248 l 0.280244,6.4484 -1.401245,0.28036 v -6.72876 H 85.87625 v -1.40184 h 1.120991 l -0.280245,-0.56073 0.280245,-2.52329 0.840735,-0.8411 z m -0.56049,1.6822 -0.280245,0.28036 v 2.24292 h 3.082737 l -0.56049,-1.68219 -0.840735,-0.84109 z m 2.241991,6.16804 -0.280245,0.28036 v 1.40183 l 0.280245,0.28037 h 1.681501 l 0.56049,-0.56073 -0.280245,-1.40183 z m 16.814967,0.28036 -0.28035,1.40183 1.12098,0.56073 0.28035,-0.28036 v -1.6822 z"
     fill="#3e388a"
     id="path1458"
     style="stroke-width:1" />
  <path
     d="m 189.56845,226.93522 1.40123,0.28036 0.5607,0.56073 0.28035,-0.56073 h 13.17171 v 1.40184 h -0.84105 v 6.4484 l -1.40122,0.28036 v -4.20548 l -1.40123,0.28037 v 1.68219 l -0.5607,0.8411 -1.40122,0.28036 -1.40123,-0.56073 -0.28035,-0.56073 v -2.24292 l 0.5607,-0.8411 h 4.48403 v -1.40182 h -5.60501 v 6.4484 h -1.40122 v -6.4484 h -1.40123 v 6.72876 l -1.40122,-0.28036 -0.28035,-1.40183 -0.5607,0.56073 h -1.96172 l -1.12098,-1.40182 v -0.56073 h -1.68147 v -1.40183 l 2.80245,-0.56073 v -1.68219 l -0.28035,1.12146 -1.40122,-0.28037 v -0.84109 h -1.96172 l 0.5607,1.40182 -0.28035,1.96256 -1.12098,1.12146 v 0.56073 h 1.68147 v 1.40183 l -0.5607,0.28036 -1.96171,-0.56073 -0.5607,-1.12146 v -0.84109 l -1.12044,-0.28037 v -1.40183 l 2.24195,-0.28036 -0.28034,-1.68219 -0.28035,-0.28037 -2.24196,-0.28036 v 6.4484 l -1.40123,0.28036 v -3.08401 h -1.68147 v -1.40183 h 1.68147 v -2.24292 l -2.5222,0.28036 0.28035,0.28037 v 2.52329 l -0.5607,0.84109 h -0.84105 l 0.28035,0.8411 1.40122,0.28036 v 1.40183 h -1.96171 l -1.12098,-1.96256 -0.84105,-0.28036 v -1.6822 h 2.24196 l -0.28035,-1.96255 -0.28035,-0.28037 -2.24196,-0.28036 v -1.40184 z m 2.24196,1.6822 -0.28035,2.24292 -1.40122,0.8411 0.5607,1.12146 h 1.40122 l 0.84105,-1.12146 v -3.08402 z m 7.28648,2.52328 -0.28035,1.40183 0.28035,0.56073 1.12098,-0.28036 v -1.40183 z"
     fill="#45408e"
     id="path1460"
     style="stroke-width:1" />
  <path
     d="m 62.895819,95.724101 0.840735,0.280365 4.483982,8.130604 3.923493,7.00914 3.082736,5.32695 v 1.12146 l -3.362981,1.96256 h -0.840735 l -3.082737,-5.04658 -4.203737,-6.72878 -3.643237,-5.88767 -1.681501,-2.80366 0.280245,-0.841095 z"
     fill="#deb52b"
     id="path1462"
     style="stroke-width:1" />
  <path
     d="m 176.95724,95.724101 3.36305,1.682198 1.68147,1.121461 -0.5607,1.401825 -3.0827,5.046585 -7.00623,11.21463 -1.96171,3.36438 -1.40123,-0.28037 -2.80245,-1.96255 0.28035,-1.40183 2.80245,-5.04658 7.84697,-14.018288 z"
     fill="#deb52b"
     id="path1464"
     style="stroke-width:1" />
  <path
     d="m 211.14764,124.88213 1.12098,0.56073 2.80245,3.64475 -1.40122,1.40183 -10.08903,7.2895 -3.92343,2.80366 -4.20378,3.08403 -1.12098,-0.56073 -1.96172,-2.5233 v -0.84109 l 2.80245,-2.24293 7.84697,-6.16804 4.76427,-3.92512 z"
     fill="#deb52b"
     id="path1466"
     style="stroke-width:1" />
  <path
     d="m 28.425171,124.88213 1.121001,0.28036 3.643237,2.80366 4.764237,3.92512 3.923493,3.08402 4.483992,3.64476 1.681491,1.40182 -1.961746,3.08403 -1.121001,0.56073 -4.203737,-3.08403 -3.923492,-2.80366 -4.764238,-3.36438 -6.725984,-5.04658 1.121001,-1.96256 z"
     fill="#deb52b"
     id="path1468"
     style="stroke-width:1" />
  <path
     d="m 231.60583,164.69405 h 1.12098 l 1.40122,4.76622 -0.28035,0.84109 -22.70018,5.60732 h -1.12098 l -1.12098,-4.48586 7.28648,-2.24292 9.52843,-2.80366 z"
     fill="#deb52b"
     id="path1470"
     style="stroke-width:1" />
  <path
     d="m 7.6867321,164.69405 2.2419931,0.28037 6.4457328,1.96255 14.292706,4.20549 0.56049,0.28036 -0.280245,2.24293 -0.56049,2.24293 -2.522246,-0.28037 -21.2989386,-5.32695 -0.2802449,-1.12146 z"
     fill="#deb52b"
     id="path1472"
     style="stroke-width:1" />
  <path
     d="m 44.399375,108.62092 1.121,0.56073 2.522247,3.08403 3.362992,3.92512 2.522246,3.08401 2.522247,2.80366 2.522236,3.08402 1.401246,1.68219 -0.280245,1.12147 -2.522247,2.24292 -1.121001,-0.28036 -3.082747,-3.36439 -0.280245,-0.8411 -0.840734,-0.28036 -1.961746,-2.24293 -1.681491,-1.68219 v -0.56073 l -0.840735,-0.28036 -1.961746,-2.24293 -1.121001,-1.12146 v -0.56073 h -0.56049 l -1.961746,-2.24293 -0.280245,-0.8411 -1.121001,-0.56073 -0.280245,-0.84109 2.241991,-2.24293 z"
     fill="#deb52b"
     id="path1474"
     style="stroke-width:1" />
  <path
     d="m 11.610221,154.04016 1.681495,0.28036 9.528475,3.92512 7.846974,3.08402 3.643237,1.68219 -0.280245,1.40184 -1.121001,2.80365 -1.68149,-0.28037 -8.12723,-2.80366 -12.050716,-4.20548 -1.4012449,-0.56073 0.8407449,-2.80366 z"
     fill="#deb52b"
     id="path1476"
     style="stroke-width:1" />
  <path
     d="m 195.45368,108.62092 1.12098,0.56073 3.36305,3.08403 -1.68147,2.24292 -2.80245,2.80366 -1.96172,2.24292 -1.96171,1.96256 -1.96172,2.24293 -2.5222,2.52328 -1.96172,2.24293 -1.68147,1.68219 -1.12098,-0.56073 -2.24196,-1.96255 v -0.84111 l 3.0827,-3.92511 h 0.5607 l 0.5607,-1.12146 3.64329,-4.20549 2.5222,-3.08402 2.52221,-2.80366 z"
     fill="#deb52b"
     id="path1478"
     style="stroke-width:1" />
  <path
     d="m 227.68233,154.04016 h 1.12098 l 1.96172,4.76621 v 0.56073 l -6.1655,2.24293 -16.25445,5.60731 -1.12098,-0.28037 -1.12098,-3.08402 0.28035,-1.12146 12.33095,-5.04658 z"
     fill="#deb52b"
     id="path1480"
     style="stroke-width:1" />
  <path
     d="m 186.48572,101.89215 1.40122,0.56073 3.0827,2.24293 v 1.12146 l -2.80245,3.64475 -3.0827,3.92512 -3.36294,4.48585 -2.24196,2.80366 -2.80245,3.64475 -0.5607,0.28036 -3.36304,-2.52329 0.5607,-1.40182 2.24196,-3.08403 4.76427,-7.00914 4.48402,-6.44841 z"
     fill="#deb52b"
     id="path1482"
     style="stroke-width:1" />
  <path
     d="m 16.374457,143.66663 1.681491,0.56073 8.127229,4.20548 3.923492,2.24293 4.483982,2.24292 3.643237,1.96256 -0.840735,2.24293 -1.121,1.96255 -2.802492,-1.12146 -11.490215,-5.32695 -7.846974,-3.64475 -0.280245,-0.56073 z"
     fill="#deb52b"
     id="path1484"
     style="stroke-width:1" />
  <path
     d="m 53.087098,101.89215 1.121001,0.28036 4.483993,6.44841 4.203737,6.16804 3.082736,4.48585 1.681491,2.5233 -1.401235,1.40182 -2.242002,1.40183 -2.802491,-3.36438 -5.604983,-7.28951 -3.082737,-3.92512 -2.802491,-3.64475 -0.840735,-1.40183 3.923492,-2.80366 z"
     fill="#deb52b"
     id="path1486"
     style="stroke-width:1" />
  <path
     d="m 223.4786,143.66663 0.84105,0.28036 1.96171,4.20548 v 0.8411 l -8.40745,3.92512 -10.92971,5.04658 -2.80245,1.12146 -1.96172,-3.64475 v -0.56073 l 3.92354,-2.24293 4.48402,-2.24292 8.12721,-4.20548 z"
     fill="#deb52b"
     id="path1488"
     style="stroke-width:1" />
  <path
     d="m 233.56757,175.62831 h 1.68147 l 1.12098,5.04658 v 0.56073 l -20.73844,3.08402 -3.64329,0.56073 -0.5607,-1.68219 -0.28035,-3.08402 z"
     fill="#deb52b"
     id="path1490"
     style="stroke-width:1" />
  <path
     d="m 5.1644887,175.62831 2.8024915,0.28037 21.0186888,4.20548 0.280245,0.56073 -0.560489,3.64475 -0.280245,0.28037 H 26.183189 L 9.3682364,182.07672 4.0435026,181.23562 4.604003,177.3105 Z"
     fill="#deb52b"
     id="path1492"
     style="stroke-width:1" />
  <path
     d="m 35.991899,116.47116 1.121001,0.28037 6.445728,6.4484 1.961746,1.6822 v 0.56073 l 1.121001,0.56073 7.286484,7.28951 -0.56049,1.12146 -2.241991,2.24292 -1.121,-0.56073 -3.082737,-2.52329 v -0.56073 l -1.121001,-0.56073 -3.643236,-3.36439 -2.241992,-1.96255 -3.923492,-3.36439 -3.362992,-3.08402 0.56049,-1.12147 z"
     fill="#deb52b"
     id="path1494"
     style="stroke-width:1" />
  <path
     d="m 234.40832,186.84294 h 2.5222 l 0.5607,3.92512 v 1.68219 l -7.28647,0.56073 -17.37545,0.84109 -0.28035,-1.68219 v -3.08402 l 13.45197,-1.40183 z"
     fill="#deb52b"
     id="path1496"
     style="stroke-width:1" />
  <path
     d="m 3.4829938,186.84294 h 2.5222423 l 19.6174439,1.96255 2.241991,0.28037 v 2.80366 l -0.56049,1.96255 -22.139686,-1.12146 -2.2419932,-0.28036 0.280245,-5.32695 z"
     fill="#deb52b"
     id="path1498"
     style="stroke-width:1" />
  <path
     d="m 21.979441,133.85383 1.401246,0.56073 4.203737,2.80365 12.050714,7.85024 2.802492,1.96256 v 1.12146 l -1.961747,3.08403 -2.802491,-1.40183 -3.643237,-2.24293 -8.127229,-4.76621 -4.764238,-2.80366 -1.681491,-1.12146 0.280245,-1.40183 z"
     fill="#deb52b"
     id="path1500"
     style="stroke-width:1" />
  <path
     d="m 217.87361,133.85383 1.40123,1.40183 1.68147,2.80365 -0.28035,1.12147 -4.48403,2.52328 -2.80245,1.6822 -4.76426,2.80366 -7.84697,4.76621 h -1.12098 l -1.96171,-3.08402 0.28035,-1.12146 4.48402,-2.80366 7.56672,-5.04658 5.04451,-3.08402 z"
     fill="#deb52b"
     id="path1502"
     style="stroke-width:1" />
  <path
     d="m 203.58091,116.47116 1.12098,0.28037 1.96172,2.24292 1.12098,1.12147 -0.5607,1.12146 -2.80245,2.52329 -2.24196,1.96255 h -0.5607 v 0.56073 l -3.0827,2.5233 -3.92353,3.64475 -2.24196,1.96256 -2.52221,2.24292 -1.12098,-0.28036 -1.96171,-2.24293 -0.28035,-1.12146 2.80245,-2.52329 8.12721,-8.1306 h 0.5607 l 0.28035,-0.8411 2.24196,-1.96256 z"
     fill="#deb52b"
     id="path1504"
     style="stroke-width:1" />
  <path
     d="m 212.82913,200.02012 2.52221,0.28036 0.5607,0.8411 v 1.40183 h -1.40123 l -0.28035,-0.8411 -1.12098,0.28037 0.28035,1.12146 2.24196,0.28037 0.28035,1.12146 -1.96171,0.56073 0.28035,1.40183 h 2.24196 l 1.12098,-0.8411 0.28035,-3.92512 h -1.68147 v -1.68219 h 16.25444 l 0.28035,1.40182 -0.28035,0.28037 h -1.40122 v 7.28951 h -1.96172 l -0.28035,-0.28037 v -3.92512 h -4.76426 v 2.52329 h 1.68147 v 1.6822 l -2.52221,-0.28037 -1.40122,-1.40183 -0.28035,-0.56073 v -1.96256 l 0.84105,-1.40182 1.40122,-0.56073 h 5.32476 l -0.28035,-0.8411 -8.6877,-0.28037 v 7.28951 h -1.9623 l -0.28035,-0.28037 v -1.40183 l -1.96172,0.8411 h -1.96171 l -1.68147,-0.8411 -0.5607,-0.84109 v -1.40183 l 0.5607,-0.8411 -1.40122,-1.12146 v -1.96256 l 1.12097,-0.8411 z"
     fill="#3f398b"
     id="path1506"
     style="stroke-width:1" />
  <path
     d="m 217.87361,227.21558 h 19.8977 v 1.40184 h -0.84105 l 0.28035,1.96255 -0.5607,1.40183 -0.5607,0.56073 h -0.84105 l 0.28035,0.8411 1.96171,0.28036 v 1.68219 h -2.24196 l -0.84104,-0.84109 -0.28035,-1.68219 h -1.12098 v -1.6822 l 2.24195,-0.28036 0.28035,-1.40183 -0.28035,-0.56073 -3.08269,-0.28036 v 6.72876 l 0.84105,0.28038 0.28035,0.56073 v 1.96255 l -0.84105,0.8411 -2.24196,0.28037 -2.24196,-1.12147 -0.28035,-0.84109 0.84105,-0.8411 0.28035,0.8411 0.84105,0.28036 h 1.96172 l 0.28035,-1.12146 -1.68147,0.28037 -0.28035,-1.40184 0.5607,-0.28036 0.28035,-1.96256 -1.12098,0.56073 -1.40123,-0.28036 -0.84105,-0.8411 -0.28035,-2.24292 0.5607,-1.68219 h -1.40122 l 0.28035,6.4484 h -1.68147 l 0.28035,-1.40183 -0.84105,0.28037 h -1.96172 l -1.12098,-1.12146 v -2.24293 l 0.84105,-0.84109 1.68147,-0.28037 1.40123,0.56073 v -1.40182 h -4.76427 v 6.4484 l -0.5607,0.28036 -0.84105,-0.28036 v -6.4484 h -1.12045 z m 11.20998,1.40184 -0.5607,0.84109 v 1.96256 l 0.5607,0.8411 h 1.40122 l 0.28035,-0.28037 v -3.36438 z m -6.44574,2.24292 -0.28035,1.40183 0.28035,0.56073 h 1.68147 l 0.84105,-1.12146 v -0.56074 l -0.5607,-0.28036 z"
     fill="#403b8b"
     id="path1508"
     style="stroke-width:1" />
  <path
     d="m 166.58802,90.957888 1.68147,0.280365 3.64329,1.68219 -0.28035,1.401833 -3.08269,6.448404 -3.0827,6.16805 h -0.5607 V 95.163371 Z"
     fill="#deb52b"
     id="path1510"
     style="stroke-width:1" />
  <path
     d="m 116.14317,227.21558 h 11.77046 v 1.40184 h -0.84074 v 6.4484 h -1.40123 v -1.40183 l -0.5607,0.28037 H 122.869 l -0.84105,-0.8411 -0.28035,-1.96256 0.84105,-1.40182 1.96172,-0.28037 0.84105,0.28037 0.28035,-1.12146 -4.48403,0.28036 v 3.36439 l -0.5607,1.40182 -1.40122,-0.56073 0.28035,-0.56073 0.28035,-3.92511 h -1.68147 l 0.28035,5.88767 0.28035,0.56073 1.96171,-0.28037 0.28035,1.40184 -0.84105,0.56073 h -1.68147 l -1.40122,-1.40184 -0.28035,-0.84109 v -5.88767 h -0.5607 z m 7.28647,3.64476 -0.28035,0.28036 v 1.40183 l 0.28035,0.28037 1.96171,-0.28037 0.28035,-1.40183 -0.28035,-0.28036 z"
     fill="#3e388a"
     id="path1512"
     style="stroke-width:1" />
  <path
     d="m 73.265036,90.677523 0.840735,1.12146 1.12099,2.523293 v 12.616454 l -0.840735,-0.8411 -3.362981,-7.00914 -2.522247,-5.046579 v -1.121468 z"
     fill="#deb52b"
     id="path1514"
     style="stroke-width:1" />
  <path
     d="m 213.66989,223.0101 1.96171,0.84109 1.12098,1.6822 0.5607,1.96256 0.5607,1.12147 v 2.52328 l -0.5607,1.12147 -1.12098,0.56073 0.28035,0.56073 1.68147,0.28036 v 1.68219 l -2.24196,-0.28036 -1.12098,-1.40183 v -1.12146 h -1.12098 v -1.12146 l 2.80245,-0.28037 -0.28035,-2.52328 -1.12098,-0.28037 -0.28035,1.12146 1.12098,0.28037 -0.84105,0.84109 -1.12098,-0.56073 -0.28035,-1.40182 h -0.5607 v 6.4484 h -1.40122 v -6.4484 h -1.12051 v -1.40184 h 1.12098 l -0.28035,-1.40182 0.5607,-1.96257 0.5607,-0.56073 z m -0.5607,1.6822 -0.28035,0.56073 v 1.68219 l 0.84105,0.28036 v 1.40184 l 1.12098,-1.40184 1.12098,-0.28036 -0.28035,-1.12146 -0.84105,-1.12146 z"
     fill="#433e8d"
     id="path1516"
     style="stroke-width:1" />
  <path
     d="m 178.63873,212.63657 h 1.12098 l 1.12098,2.80366 0.28035,-2.80366 h 1.40119 v 7.28951 l -1.40123,0.28036 -1.12098,-3.08402 -0.28035,3.08402 h -1.40122 v -7.28951 z"
     fill="#555098"
     id="path1518"
     style="stroke-width:1" />
  <path
     d="m 86.156504,212.63657 h 1.401246 l 0.840734,2.52329 0.280245,-2.52329 h 1.401246 v 7.56987 l -1.401246,-0.28036 -1.12099,-3.08402 v 3.08402 l -1.401246,0.28036 z"
     fill="#474290"
     id="path1520"
     style="stroke-width:1" />
  <path
     d="m 58.692083,184.60001 h 1.961746 l 1.401246,1.40182 v 1.6822 l -0.840735,1.12146 0.840735,0.28037 0.280245,0.56073 v 2.24293 l -1.681491,1.40182 h -1.961746 l -1.68149,-1.40182 -0.280245,-1.40184 0.560489,-1.40182 0.840735,-0.28037 v -0.56073 h -0.56049 l -0.280245,-0.56073 v -1.96256 z m 0.56049,0.84109 -0.840735,0.56073 v 1.6822 l 1.401246,0.56073 1.12099,-0.84109 -0.280245,-1.40184 z m -0.56049,3.64476 -0.56049,0.56073 v 1.96256 l 1.401246,0.8411 1.401246,-0.56073 0.280245,-0.28037 v -1.96256 l -0.840735,-0.56073 z"
     fill="#494491"
     id="path1522"
     style="stroke-width:1" />
  <path
     d="m 219.55511,212.63657 h 3.64329 l 0.28035,0.28036 v 2.80366 l -0.84105,0.28037 v 0.56073 l 0.84105,0.28037 v 2.80365 l -0.28035,0.56073 h -3.64329 z m 1.40123,1.12147 v 1.96255 h 1.12098 l 0.28035,-1.96255 z m 0,3.08402 v 2.24292 h 1.40122 v -1.68219 l -0.5607,-0.56073 z"
     fill="#3d3789"
     id="path1524"
     style="stroke-width:1" />
  <path
     d="m 3.4829938,212.63657 h 1.4012458 l 1.1209965,3.08402 0.280245,-3.08402 h 1.1209966 v 7.56987 H 6.2854853 l -1.1209966,-2.80365 -0.2802449,2.80365 H 3.482998 Z"
     fill="#3b3588"
     id="path1526"
     style="stroke-width:1" />
  <path
     d="m 104.9332,212.63657 h 1.40125 l 1.121,3.08402 0.28035,-3.08402 h 1.12098 v 7.56987 h -1.12098 l -1.12098,-2.80365 -0.28025,2.80365 h -1.40124 z"
     fill="#423d8d"
     id="path1528"
     style="stroke-width:1" />
  <path
     d="m 150.33357,212.63657 h 1.40123 l 1.12098,3.08402 v -3.08402 h 1.40122 v 7.56987 h -1.12098 l -1.12098,-2.80365 -0.5607,2.80365 h -1.12098 z"
     fill="#433e8d"
     id="path1530"
     style="stroke-width:1" />
  <path
     d="m 74.946537,212.63657 h 1.12099 l 1.12099,2.80366 0.280245,-2.80366 h 1.401246 v 7.56987 h -1.401246 l -1.12099,-3.08402 -0.280245,3.08402 h -1.12099 z"
     fill="#3a3588"
     id="path1532"
     style="stroke-width:1" />
  <path
     d="m 27.864673,212.63657 h 1.401246 l 1.121,3.08402 0.280245,-3.08402 h 1.121001 v 7.56987 h -1.121001 l -1.121,-2.80365 -0.280245,2.80365 h -1.401246 z"
     fill="#433e8d"
     id="path1534"
     style="stroke-width:1" />
  <path
     d="m 19.176948,212.63657 h 1.121001 l 1.121001,2.52329 0.280245,-2.52329 h 1.401246 v 7.56987 h -1.401246 l -1.121001,-3.36438 -0.280245,3.36438 h -1.121001 z"
     fill="#433e8d"
     id="path1536"
     style="stroke-width:1" />
  <path
     d="m 130.99638,212.63657 h 1.12098 l 1.12098,2.52329 0.28035,-2.52329 h 1.40122 v 7.56987 l -1.40122,-0.28036 -1.12098,-3.08402 -0.28035,3.36438 h -1.12098 z"
     fill="#433d8d"
     id="path1538"
     style="stroke-width:1" />
  <path
     d="m 72.144041,184.60001 2.241991,0.28036 0.840735,1.12146 v 0.84111 h -1.12099 l -0.280245,-1.12147 -1.961746,0.28036 -0.56049,1.12147 v 1.12146 l 0.56049,-0.56073 h 2.242001 l 1.120991,1.12146 0.280245,2.24293 -0.840735,1.68219 -1.120991,0.56073 h -1.681501 l -1.68149,-1.40182 -0.280245,-0.8411 v -3.92512 l 0.840734,-1.6822 z m 0,3.92512 -1.12099,1.40182 0.280245,1.6822 1.121001,0.8411 1.401245,-0.56073 0.56049,-0.8411 -0.280245,-1.96256 -0.840735,-0.56073 z"
     fill="#484290"
     id="path1540"
     style="stroke-width:1" />
  <path
     d="m 173.59425,212.63657 h 1.40123 v 3.08402 h 1.40122 v -3.08402 h 1.40122 v 7.56987 h -1.40119 v -3.36438 h -1.40122 v 3.36438 h -1.40123 z"
     fill="#3b3588"
     id="path1542"
     style="stroke-width:1" />
  <path
     d="m 212.82913,212.63657 h 1.40123 v 3.08402 h 1.40122 v -3.08402 h 1.40123 v 7.28951 l -1.40123,0.28036 v -3.36438 h -1.40122 v 3.36438 h -1.40123 z"
     fill="#4a4491"
     id="path1544"
     style="stroke-width:1" />
  <path
     d="m 233.00707,212.63657 h 3.64329 l 0.28035,0.28036 v 3.36439 l -1.12098,0.28037 1.12098,3.08402 v 0.56073 l -1.40122,-0.28036 -0.84105,-2.24293 -0.28035,2.52329 h -1.40123 z m 1.40123,1.12147 v 2.24292 h 1.12098 v -2.24292 z"
     fill="#423d8d"
     id="path1546"
     style="stroke-width:1" />
  <path
     d="m 98.487466,212.63657 h 3.643244 l 0.28025,0.56074 v 3.08401 l -1.12101,0.28037 1.12101,3.08402 v 0.56073 l -1.40126,-0.28036 -0.84073,-2.24293 -0.280248,2.52329 h -1.401245 z m 1.401246,1.12147 v 2.24292 h 1.120988 v -2.24292 z"
     fill="#423d8d"
     id="path1548"
     style="stroke-width:1" />
  <path
     d="m 228.52309,212.63657 h 1.40122 v 6.44841 h 1.12098 v -6.44841 h 1.40123 v 7.28951 l -0.28035,0.28036 h -3.36294 l -0.28035,-0.28036 z"
     fill="#423d8d"
     id="path1550"
     style="stroke-width:1" />
  <path
     d="m 191.5302,212.63657 h 3.64329 v 7.56987 h -3.64329 l -0.28035,-0.28036 v -7.00915 z m 1.12098,1.12147 v 5.32694 h 1.40122 v -5.32694 z"
     fill="#393387"
     id="path1552"
     style="stroke-width:1" />
  <path
     d="m 183.40297,212.63657 h 3.64319 v 7.56987 h -3.64319 l -0.28035,-0.28036 v -7.00915 z m 1.12098,1.12147 v 5.32694 h 1.40123 v -5.32694 z"
     fill="#393387"
     id="path1554"
     style="stroke-width:1" />
  <path
     d="m 60.934073,212.63657 h 3.643237 v 7.56987 h -3.643237 l -0.280245,-0.84109 v -6.16804 z m 1.120991,1.12147 v 5.32694 h 1.401245 v -5.32694 z"
     fill="#47418f"
     id="path1556"
     style="stroke-width:1" />
  <path
     d="m 196.01418,212.63657 h 3.64329 v 2.24293 h -1.12098 v -1.12146 h -1.40132 v 5.32694 h 1.40123 v -1.96256 h -0.84105 v -1.12146 h 1.96171 v 3.92512 l -0.28035,0.28036 h -3.08227 l -0.5607,-0.84109 v -6.16804 z"
     fill="#474290"
     id="path1558"
     style="stroke-width:1" />
  <path
     d="m 155.0978,212.63657 h 3.0827 l 0.5607,0.56074 v 6.4484 l -0.5607,0.56073 h -3.0827 z m 1.40123,1.12147 v 5.32694 l 1.12098,-0.28036 v -4.76622 z"
     fill="#45408e"
     id="path1560"
     style="stroke-width:1" />
  <path
     d="m 8.2472304,212.63657 h 3.0827416 l 0.560501,0.56074 v 6.4484 l -0.560501,0.56073 H 8.2472304 Z m 1.4012457,1.12147 v 5.32694 l 1.1209959,-0.28036 v -4.76622 z"
     fill="#46408f"
     id="path1562"
     style="stroke-width:1" />
  <path
     d="m 64.297066,184.88037 h 4.203737 v 0.8411 l -3.082736,0.28036 -0.280245,1.6822 1.681491,-0.28036 1.68149,0.84109 0.56049,1.12146 -0.280245,2.5233 -1.12099,1.12146 -2.522247,0.28036 -1.401245,-1.12146 -0.280245,-1.40182 h 1.121001 l 0.560489,1.12146 1.120991,0.28036 1.12099,-0.56073 0.280245,-1.6822 -0.280245,-0.84109 -0.56049,-0.28037 h -1.681491 l -1.121,0.56073 -0.56049,-0.56073 z"
     fill="#47418f"
     id="path1564"
     style="stroke-width:1" />
  <path
     d="m 120.9074,212.63657 h 3.36305 l 0.28035,0.56074 v 1.68219 l -1.40123,0.28036 v -1.40182 h -1.12098 v 5.32694 h 1.12098 v -1.40183 h 1.40123 v 2.24293 l -0.28035,0.28036 h -3.36305 l -0.28035,-0.28036 v -7.00915 z"
     fill="#565198"
     id="path1566"
     style="stroke-width:1" />
  <path
     d="m 79.71077,212.63657 h 3.643237 v 2.52329 l -1.12099,-0.28036 v -1.12146 h -1.401246 v 5.32694 h 1.401246 v -1.96256 h -0.840735 v -1.12146 h 1.961746 v 3.92512 l -0.280245,0.28036 h -3.08276 l -0.280245,-0.28036 z"
     fill="#383286"
     id="path1568"
     style="stroke-width:1" />
  <path
     d="m 224.0391,212.63657 h 3.64318 l 0.28035,0.28036 v 4.20549 l -0.28035,0.28037 h -2.24196 v 2.80365 h -1.40122 z m 1.40122,1.12147 v 2.52328 h 1.12098 v -2.52328 z"
     fill="#373186"
     id="path1570"
     style="stroke-width:1" />
  <path
     d="m 109.69745,212.63657 h 3.64318 v 2.24293 h -1.12098 v -1.12146 h -1.40122 v 5.32694 h 1.40122 v -1.96256 h -0.84105 v -1.12146 h 1.96172 v 3.92512 l -0.28035,0.28036 h -3.0827 l -0.28035,-0.28036 z"
     fill="#373186"
     id="path1572"
     style="stroke-width:1" />
  <path
     d="M 32.628908,212.63657 H 35.9919 l 0.280245,0.28036 v 1.96257 h -1.401246 v -1.12146 h -1.121 l 0.56049,1.40182 1.961746,1.96256 v 2.80366 l -0.280245,0.28036 h -3.082732 l -0.280245,-0.28036 v -2.24293 h 1.121 v 1.40183 h 1.121001 l -0.56049,-1.96256 -1.401245,-1.12146 -0.280245,-0.56073 z"
     fill="#45408e"
     id="path1574"
     style="stroke-width:1" />
  <path
     d="m 208.62539,212.63657 h 3.36294 l 0.28035,0.28036 v 1.96257 h -1.40129 v -1.12146 h -1.12098 l 0.5607,1.40182 1.96171,1.96256 v 2.80366 l -0.28035,0.28036 h -3.08269 l -0.28035,-0.28036 v -2.24293 h 1.12098 v 1.40183 h 1.40122 l -0.5607,-1.68219 -1.96171,-1.96256 z"
     fill="#3d378a"
     id="path1576"
     style="stroke-width:1" />
  <path
     d="m 46.641367,212.63657 h 1.121001 v 6.44841 h 1.401245 v -6.44841 h 1.121001 v 7.28951 l -0.280245,0.28036 h -3.082747 l -0.280245,-0.28036 z"
     fill="#383287"
     id="path1578"
     style="stroke-width:1" />
  <path
     d="m 116.42342,212.63657 h 3.36304 v 2.24293 h -1.12097 v -1.12146 h -1.40123 l 0.5607,1.40182 1.96171,1.96256 v 2.80366 l -0.28034,0.28036 h -3.0827 l -0.28035,-0.28036 v -2.24293 h 1.12098 v 1.40183 h 1.40123 l -0.5607,-1.68219 -1.96172,-1.96256 v -2.5233 z"
     fill="#383287"
     id="path1580"
     style="stroke-width:1" />
  <path
     d="m 15.813959,212.63657 h 1.401245 l 0.840735,3.64475 0.56049,3.92512 -1.401246,-0.28036 v -1.12146 h -1.401245 v 1.40182 h -1.401246 z m 0.560489,2.52329 -0.280245,2.52329 h 0.840735 l -0.280245,-2.52329 z"
     fill="#433d8d"
     id="path1582"
     style="stroke-width:1" />
  <path
     d="m 147.25083,212.63657 h 1.40122 l 1.12098,5.60731 v 1.96256 h -1.12098 l -0.28035,-1.12146 -1.12098,-0.28036 -0.28035,1.40182 h -1.12098 l 0.5607,-3.92512 z m 0.5607,2.52329 -0.28035,2.52329 h 0.84105 l -0.28035,-2.52329 z"
     fill="#433d8d"
     id="path1584"
     style="stroke-width:1" />
  <path
     d="m 169.67076,212.63657 h 3.36304 v 2.52329 h -1.12098 v -1.40182 h -1.40122 v 5.32694 h 1.40122 v -1.40183 h 1.12098 v 2.24293 l -0.28035,0.28036 h -3.08269 l -0.28035,-0.28036 v -7.00915 z"
     fill="#373186"
     id="path1586"
     style="stroke-width:1" />
  <path
     d="m 136.04086,212.63657 h 3.36305 v 2.52329 h -1.12098 v -1.40182 h -1.40123 v 5.32694 h 1.40123 v -1.40183 h 1.12098 v 2.24293 l -0.28035,0.28036 h -3.0827 l -0.28035,-0.28036 v -7.00915 z"
     fill="#373186"
     id="path1588"
     style="stroke-width:1" />
  <path
     d="m 127.07289,212.63657 h 3.36304 v 1.12147 h -1.96171 v 1.96255 h 1.68147 v 1.12147 h -1.68147 v 2.24292 h 1.96171 v 1.12146 h -3.36304 z"
     fill="#484390"
     id="path1590"
     style="stroke-width:1" />
  <path
     d="m 94.563975,212.63657 h 3.362992 v 1.12147 h -1.961746 v 1.96255 h 1.68149 v 1.12147 h -1.68149 v 2.24292 h 1.961746 v 1.12146 h -3.362992 z"
     fill="#373186"
     id="path1592"
     style="stroke-width:1" />
  <path
     d="m 90.640485,212.63657 h 3.362992 v 1.12147 h -1.961746 v 1.96255 h 1.68149 v 1.12147 h -1.68149 v 2.24292 h 1.961746 v 1.12146 h -3.362992 z"
     fill="#383287"
     id="path1594"
     style="stroke-width:1" />
  <path
     d="m 71.023046,212.63657 h 3.082736 v 1.12147 h -1.681489 v 1.96255 h 1.681491 v 1.12147 h -1.681491 v 2.24292 h 1.961747 l -0.280245,1.12146 h -3.082737 z"
     fill="#46408f"
     id="path1596"
     style="stroke-width:1" />
  <path
     d="m 165.46703,212.63657 h 3.0827 v 1.12147 h -1.68147 v 1.96255 h 1.68147 v 1.12147 h -1.68147 v 1.96256 l 1.68147,0.28036 v 1.12146 h -3.0827 z"
     fill="#47418f"
     id="path1598"
     style="stroke-width:1" />
  <path
     d="m 140.2446,212.63657 h 3.08269 v 1.12147 l -1.68147,0.28036 v 1.40183 l 1.68147,0.56073 v 0.8411 l -1.68147,0.28036 -0.28035,1.96256 h 1.96172 v 1.12146 h -3.0827 z"
     fill="#423d8d"
     id="path1600"
     style="stroke-width:1" />
  <path
     d="m 55.048842,212.63657 h 3.082747 v 1.12147 h -1.961746 v 1.96255 h 1.681491 l 0.280245,1.12147 h -1.961747 v 2.24292 h 1.961747 v 1.12146 h -3.082747 l -0.280245,-5.04658 z"
     fill="#3b3588"
     id="path1602"
     style="stroke-width:1" />
  <path
     d="m 174.9955,185.4411 h 0.5607 l 0.28035,0.8411 -0.5607,0.56074 v 1.40182 l 1.12098,0.56073 h 0.84105 l -0.28035,-1.96255 1.40122,-0.56074 0.84105,0.8411 -0.28035,1.96256 0.28035,2.24293 -1.12098,1.40182 -0.84105,0.28037 -0.28035,-0.8411 1.12098,-1.40182 -0.5607,-1.12147 -2.24196,0.28036 -1.12098,-1.12146 -0.28035,-1.68219 z m 2.80245,1.96257 0.28035,0.84109 v -0.84109 z"
     fill="#514b95"
     id="path1604"
     style="stroke-width:1" />
  <path
     d="m 65.418062,212.63657 h 3.362992 v 1.12147 h -1.961747 v 1.96255 h 1.401246 l 0.280245,1.12147 h -1.681491 v 3.36438 h -1.401245 z"
     fill="#3b3588"
     id="path1606"
     style="stroke-width:1" />
  <path
     d="m 200.21792,212.63657 h 1.40122 l 0.5607,2.24293 0.84105,-2.24293 h 1.12098 l -0.28035,1.96256 -0.5607,1.68219 -0.28035,3.64476 -1.40122,0.28036 -0.5607,-4.48585 z"
     fill="#494491"
     id="path1608"
     style="stroke-width:1" />
  <path
     d="m 180.88073,185.4411 h 2.24196 l 0.5607,0.28037 -0.28035,0.84109 h -2.24196 v 1.40184 l 1.68147,0.28036 v 0.8411 h -1.40122 v 1.40182 l 1.12098,0.28038 0.84105,-0.84111 0.5607,0.28037 0.5607,2.52329 -0.84105,0.28037 -0.28035,-1.40183 -1.96172,0.28037 -1.12098,-0.8411 v -1.96256 -0.8411 l -0.28035,-0.28036 v -1.6822 z"
     fill="#4a4491"
     id="path1610"
     style="stroke-width:1" />
  <path
     d="m 161.26328,212.63657 h 3.64329 v 1.12147 h -1.12098 v 6.4484 h -1.40132 v -6.4484 h -1.12098 z"
     fill="#403a8b"
     id="path1612"
     style="stroke-width:1" />
  <path
     d="m 42.43763,212.63657 h 3.643236 v 1.12147 h -1.121 v 6.4484 H 43.55862 v -6.4484 h -1.121001 z"
     fill="#3a3488"
     id="path1614"
     style="stroke-width:1" />
  <path
     d="m 187.60671,212.63657 h 1.40122 v 6.44841 h 1.68147 v 1.12146 h -3.08269 z"
     fill="#373186"
     id="path1616"
     style="stroke-width:1" />
  <path
     d="m 166.02752,185.16074 h 1.40123 l 0.84105,1.12146 -0.28035,1.96256 -1.12098,0.56073 0.28035,1.68219 0.5607,0.84111 -0.28035,1.12146 h -1.12098 l -0.28035,-1.68219 -0.5607,-0.56074 0.28035,-1.68219 -0.84105,-1.40183 0.5607,-1.40183 z m 0.28035,1.12146 -0.28035,0.8411 0.84105,0.8411 0.5607,-1.12146 -0.28035,-0.56074 z"
     fill="#4d4893"
     id="path1618"
     style="stroke-width:1" />
  <path
     d="m 53.367347,184.60001 h 0.840735 v 8.41097 h -1.12098 l -0.280245,-5.88768 -1.68149,0.56073 v -1.12147 l 1.68149,-1.12146 z"
     fill="#575299"
     id="path1620"
     style="stroke-width:1" />
  <path
     d="m 172.47325,185.4411 0.84105,0.56073 -0.28035,0.84111 -2.24196,1.96255 -1.12098,1.68219 0.28035,0.84111 1.40123,0.28036 1.12097,-0.56073 0.5607,0.56073 -1.12097,1.12146 h -1.96172 l -1.40122,-1.12146 v -1.96256 l 1.96171,-2.24292 z"
     fill="#413c8c"
     id="path1622"
     style="stroke-width:1" />
  <path
     d="m 36.832647,212.63657 h 3.643236 v 1.12147 h -1.401245 v 6.4484 h -1.121001 v -6.4484 h -1.121001 z"
     fill="#3c3689"
     id="path1624"
     style="stroke-width:1" />
  <path
     d="m 50.845105,212.63657 h 3.643237 v 1.12147 h -1.121001 v 6.4484 H 52.24634 v -6.4484 l -1.401245,-0.28037 z"
     fill="#393387"
     id="path1626"
     style="stroke-width:1" />
  <path
     d="m 125.11115,212.63657 h 1.40123 v 7.56987 h -1.40123 z"
     fill="#383286"
     id="path1628"
     style="stroke-width:1" />
  <path
     d="m 84.194759,212.63657 h 1.401245 v 7.56987 h -1.401245 z"
     fill="#383286"
     id="path1630"
     style="stroke-width:1" />
  <path
     d="m 40.756135,212.63657 h 1.401245 v 7.56987 h -1.401245 z"
     fill="#383286"
     id="path1632"
     style="stroke-width:1" />
  <path
     d="m 12.731218,212.63657 h 1.401246 v 7.56987 h -1.401246 z"
     fill="#5e599d"
     id="path1634"
     style="stroke-width:1" />
  <path
     d="m 1.5212499,212.63657 h 1.4012456 v 7.56987 H 1.5212499 Z"
     fill="#373186"
     id="path1636"
     style="stroke-width:1" />
  <path
     d="m 102.97146,212.63657 h 1.40124 v 7.28951 l -1.40124,0.28036 z"
     fill="#5d589d"
     id="path1638"
     style="stroke-width:1" />
  <path
     d="m 25.902929,212.63657 h 1.401246 v 7.28951 l -1.401246,0.28036 z"
     fill="#474290"
     id="path1640"
     style="stroke-width:1" />
  <path
     d="m 217.59337,212.63657 h 1.12098 v 7.56987 h -1.12098 z"
     fill="#373186"
     id="path1642"
     style="stroke-width:1" />
  <path
     d="m 205.54266,233.10326 1.12098,0.28037 0.28035,0.28036 v 1.96257 l -1.12098,1.12146 h -0.5607 v -0.8411 h 0.5607 v -0.8411 l -0.84105,-0.28037 0.28035,-1.40182 z"
     fill="#494491"
     id="path1644"
     style="stroke-width:1" />
  <path
     d="m 177.51773,209.55255 1.68147,0.56073 1.40123,0.56073 -0.28035,1.40183 -1.68147,-0.56073 -1.68147,-0.8411 z"
     fill="#4b4692"
     id="path1646"
     style="stroke-width:1" />
  <path
     d="m 182.00173,223.57083 h 0.84104 l 0.28035,1.6822 -0.56069,0.84109 -1.12098,-0.56073 v -1.40183 z"
     fill="#494491"
     id="path1648"
     style="stroke-width:1" />
  <path
     d="m 60.653828,223.57083 1.120991,0.28036 0.280245,1.40184 -0.56049,0.84109 -1.121001,-0.56073 z"
     fill="#534e97"
     id="path1650"
     style="stroke-width:1" />
  <path
     d="m 126.51239,223.57083 1.12098,0.28036 v 1.6822 l -0.28035,0.56073 -1.12098,-0.28036 v -1.96257 z"
     fill="#403b8b"
     id="path1652"
     style="stroke-width:1" />
  <path
     d="m 204.7019,218.80462 h 1.12098 l -0.28035,2.24292 h -0.84105 z"
     fill="#59549a"
     id="path1654"
     style="stroke-width:1" />
</svg>
